<svg xmlns="http://www.w3.org/2000/svg" version="1.1" xmlns:xlink="http://www.w3.org/1999/xlink" xmlns:svgjs="http://svgjs.dev/svgjs" width="1000" height="623" viewBox="0 0 1000 623"><g transform="matrix(1,0,0,1,-0.6060606060606233,0.2522267206477409)"><svg viewBox="0 0 396 247" data-background-color="#ffffff" preserveAspectRatio="xMidYMid meet" height="623" width="1000" xmlns="http://www.w3.org/2000/svg" xmlns:xlink="http://www.w3.org/1999/xlink"><g id="tight-bounds" transform="matrix(1,0,0,1,0.2400000000000091,-0.09999999999999432)"><svg viewBox="0 0 395.52 247.2" height="247.2" width="395.52"><g><svg></svg></g><g><svg viewBox="0 0 395.52 247.2" height="247.2" width="395.52"><g transform="matrix(1,0,0,1,75.54432,104.83691109527498)"><svg viewBox="0 0 244.43135999999998 37.52617780945003" height="37.52617780945003" width="244.43135999999998"><g><svg viewBox="0 0 244.43135999999998 37.52617780945003" height="37.52617780945003" width="244.43135999999998"><g><svg viewBox="0 0 244.43135999999998 37.52617780945003" height="37.52617780945003" width="244.43135999999998"><g><svg viewBox="0 0 244.43135999999998 37.52617780945003" height="37.52617780945003" width="244.43135999999998"><g><svg viewBox="0 0 244.43135999999998 37.52617780945003" height="37.52617780945003" width="244.43135999999998"><g><svg viewBox="0 0 244.43135999999998 37.52617780945003" height="37.52617780945003" width="244.43135999999998"><g transform="matrix(1,0,0,1,0,0)"><svg width="244.43135999999998" viewBox="5 -39 322.7200012207031 49.54999923706055" height="37.52617780945003" data-palette-color="#ee9d6e"><path d="M17.1 0L5 0 5-36.4 15.35-36.4Q20.75-36.4 24.58-34.75 28.4-33.1 30.75-30.4 33.1-27.7 34.18-24.38 35.25-21.05 35.25-17.7L35.25-17.7Q35.25-13.6 33.8-10.35 32.35-7.1 29.83-4.78 27.3-2.45 24.03-1.23 20.75 0 17.1 0L17.1 0ZM10.85-30.85L10.85-5.6 16.05-5.6Q18.95-5.6 21.35-6.43 23.75-7.25 25.53-8.83 27.3-10.4 28.28-12.75 29.25-15.1 29.25-18.1L29.25-18.1Q29.25-21.5 28.13-23.93 27-26.35 25.18-27.88 23.35-29.4 21.2-30.13 19.05-30.85 16.95-30.85L16.95-30.85 10.85-30.85ZM50.7 0.55L50.7 0.55Q47.75 0.55 45.32-0.7 42.9-1.95 41.5-4.42 40.1-6.9 40.1-10.55L40.1-10.55Q40.1-14.15 41.57-16.73 43.05-19.3 45.47-20.7 47.9-22.1 50.75-22.1L50.75-22.1Q53.8-22.1 55.67-20.88 57.55-19.65 58.6-18.05L58.6-18.05 58.3-17.25 58.85-21.15 64-21.15 64 0 58.4 0 58.4-5.15 58.95-3.8Q58.8-3.5 58.17-2.83 57.55-2.15 56.5-1.35 55.45-0.55 54.02 0 52.6 0.55 50.7 0.55ZM52.25-4.05L52.25-4.05Q53.8-4.05 55.05-4.6 56.3-5.15 57.15-6.15 58-7.15 58.4-8.55L58.4-8.55 58.4-13.15Q58-14.45 57.1-15.43 56.2-16.4 54.92-16.95 53.65-17.5 52.1-17.5L52.1-17.5Q50.35-17.5 48.92-16.65 47.5-15.8 46.62-14.3 45.75-12.8 45.75-10.85L45.75-10.85Q45.75-8.95 46.65-7.4 47.55-5.85 49.05-4.95 50.55-4.05 52.25-4.05ZM71.69-21.15L76.75-21.15 77.19-16.6 77.05-17.2Q78.09-19.4 80.3-20.73 82.5-22.05 85.5-22.05L85.5-22.05Q88.5-22.05 90.44-20.3 92.39-18.55 92.44-15.7L92.44-15.7 92.44 0 86.84 0 86.84-13.7Q86.8-15.3 85.94-16.28 85.09-17.25 83.25-17.3L83.25-17.3Q81.55-17.3 80.19-16.28 78.84-15.25 78.07-13.48 77.3-11.7 77.3-9.4L77.3-9.4 77.3 0 71.69 0 71.69-21.15ZM100.14 0L100.14-21.15 105.74-21.15 105.74 0 100.14 0ZM99.89-28.75L99.89-28.75Q99.89-30.05 100.92-30.9 101.94-31.75 103.14-31.75L103.14-31.75Q104.34-31.75 105.29-30.9 106.24-30.05 106.24-28.75L106.24-28.75Q106.24-27.45 105.29-26.63 104.34-25.8 103.14-25.8L103.14-25.8Q101.94-25.8 100.92-26.65 99.89-27.5 99.89-28.75ZM123.54 0.55L123.54 0.55Q119.79 0.55 117.14-0.9 114.49-2.35 113.09-4.9 111.69-7.45 111.69-10.75L111.69-10.75Q111.69-13.9 113.29-16.48 114.89-19.05 117.62-20.58 120.34-22.1 123.64-22.1L123.64-22.1Q127.99-22.1 130.81-19.58 133.64-17.05 134.59-12.45L134.59-12.45 117.54-6.7 116.24-9.85 129.59-14.6 128.39-13.95Q127.89-15.45 126.64-16.57 125.39-17.7 123.19-17.7L123.19-17.7Q121.44-17.7 120.09-16.85 118.74-16 117.97-14.53 117.19-13.05 117.19-11.05L117.19-11.05Q117.19-8.95 118.04-7.43 118.89-5.9 120.34-5.08 121.79-4.25 123.64-4.25L123.64-4.25Q124.94-4.25 126.12-4.7 127.29-5.15 128.39-5.9L128.39-5.9 130.94-1.75Q129.29-0.7 127.31-0.08 125.34 0.55 123.54 0.55ZM140.09 0L140.09-39 145.69-39 145.69 0 140.09 0ZM198.68 0L167.93 0Q168.28-0.5 169.31-2.02 170.33-3.55 171.81-5.8 173.28-8.05 175.01-10.75 176.73-13.45 178.58-16.28 180.43-19.1 182.18-21.78 183.93-24.45 185.41-26.68 186.88-28.9 187.88-30.43 188.88-31.95 189.23-32.4L189.23-32.4 189.93-30.8 174.63-30.8Q173.63-30.8 172.61-31.2 171.58-31.6 170.91-32.35 170.23-33.1 170.23-34.1L170.23-34.1 170.23-38.25 175.63-38.25 175.63-37.55Q175.63-36.6 175.98-36.5 176.33-36.4 177.18-36.4L177.18-36.4 198.38-36.4 177.48-4.9 177.13-5.6 198.68-5.6 198.68 0ZM211.98 0.9L211.98 0.9Q209.08 0.9 207.18-0.88 205.28-2.65 205.18-5.45L205.18-5.45 205.18-21.15 210.78-21.15 210.78-7.45Q210.88-5.9 211.68-4.9 212.48-3.9 214.23-3.9L214.23-3.9Q215.88-3.9 217.16-4.93 218.43-5.95 219.18-7.75 219.93-9.55 219.93-11.8L219.93-11.8 219.93-21.15 225.53-21.15 225.53 0 220.48 0 220.03-4.65 220.18-3.95Q219.53-2.55 218.33-1.45 217.13-0.35 215.51 0.28 213.88 0.9 211.98 0.9ZM233.23-21.15L238.28-21.15 238.73-16.6 238.58-17.2Q239.63-19.4 241.83-20.73 244.03-22.05 247.03-22.05L247.03-22.05Q250.03-22.05 251.98-20.3 253.93-18.55 253.98-15.7L253.98-15.7 253.98 0 248.38 0 248.38-13.7Q248.33-15.3 247.48-16.28 246.63-17.25 244.78-17.3L244.78-17.3Q243.08-17.3 241.73-16.28 240.38-15.25 239.6-13.48 238.83-11.7 238.83-9.4L238.83-9.4 238.83 0 233.23 0 233.23-21.15ZM261.68 0L261.68-21.15 267.28-21.15 267.28 0 261.68 0ZM261.43-28.75L261.43-28.75Q261.43-30.05 262.45-30.9 263.48-31.75 264.68-31.75L264.68-31.75Q265.88-31.75 266.83-30.9 267.78-30.05 267.78-28.75L267.78-28.75Q267.78-27.45 266.83-26.63 265.88-25.8 264.68-25.8L264.68-25.8Q263.48-25.8 262.45-26.65 261.43-27.5 261.43-28.75ZM285.47 10.55L285.47 10.55Q282.92 10.55 281.07 9.95 279.22 9.35 277.8 8.38 276.37 7.4 275.12 6.35L275.12 6.35 278.42 2.5Q279.87 3.85 281.5 4.75 283.12 5.65 285.37 5.65L285.37 5.65Q287.47 5.65 289 4.98 290.52 4.3 291.4 3.03 292.27 1.75 292.27 0L292.27 0 292.27-5.25 292.62-4.2Q291.77-2.25 289.52-0.85 287.27 0.55 283.92 0.55L283.92 0.55Q281.02 0.55 278.57-0.93 276.12-2.4 274.67-4.95 273.22-7.5 273.22-10.7L273.22-10.7Q273.22-14 274.77-16.57 276.32-19.15 278.82-20.63 281.32-22.1 284.17-22.1L284.17-22.1Q286.97-22.1 289.15-21.1 291.32-20.1 292.42-18.6L292.42-18.6 292.12-17.8 292.72-21.15 297.87-21.15 297.87 0.1Q297.87 3.05 296.3 5.43 294.72 7.8 291.95 9.18 289.17 10.55 285.47 10.55ZM278.87-10.85L278.87-10.85Q278.87-8.95 279.75-7.4 280.62-5.85 282.15-4.95 283.67-4.05 285.57-4.05L285.57-4.05Q287.22-4.05 288.57-4.6 289.92-5.15 290.87-6.15 291.82-7.15 292.27-8.5L292.27-8.5 292.27-13.1Q291.82-14.45 290.85-15.43 289.87-16.4 288.52-16.95 287.17-17.5 285.57-17.5L285.57-17.5Q283.67-17.5 282.15-16.65 280.62-15.8 279.75-14.3 278.87-12.8 278.87-10.85ZM314.42 0.55L314.42 0.55Q311.47 0.55 309.05-0.7 306.62-1.95 305.22-4.42 303.82-6.9 303.82-10.55L303.82-10.55Q303.82-14.15 305.3-16.73 306.77-19.3 309.2-20.7 311.62-22.1 314.47-22.1L314.47-22.1Q317.52-22.1 319.4-20.88 321.27-19.65 322.32-18.05L322.32-18.05 322.02-17.25 322.57-21.15 327.72-21.15 327.72 0 322.12 0 322.12-5.15 322.67-3.8Q322.52-3.5 321.9-2.83 321.27-2.15 320.22-1.35 319.17-0.55 317.75 0 316.32 0.55 314.42 0.55ZM315.97-4.05L315.97-4.05Q317.52-4.05 318.77-4.6 320.02-5.15 320.87-6.15 321.72-7.15 322.12-8.55L322.12-8.55 322.12-13.15Q321.72-14.45 320.82-15.43 319.92-16.4 318.65-16.95 317.37-17.5 315.82-17.5L315.82-17.5Q314.07-17.5 312.65-16.65 311.22-15.8 310.35-14.3 309.47-12.8 309.47-10.85L309.47-10.85Q309.47-8.95 310.37-7.4 311.27-5.85 312.77-4.95 314.27-4.05 315.97-4.05Z" opacity="1" transform="matrix(1,0,0,1,0,0)" fill="#ee9d6e" class="undefined-text-0" data-fill-palette-color="primary" id="text-0"></path></svg></g></svg></g></svg></g></svg></g><g></g></svg></g></svg></g></svg></g><g><path d="M114.239 95.978A122.216 122.216 0 0 1 281.281 95.978L277.897 95.978A118.832 118.832 0 0 0 117.623 95.978L114.239 95.978M114.239 151.222A122.216 122.216 0 0 0 281.281 151.222L277.897 151.222A118.832 118.832 0 0 1 117.623 151.222L114.239 151.222" fill="#6f605b" stroke="transparent" data-fill-palette-color="tertiary"></path></g></svg></g><defs></defs></svg><rect width="395.52" height="247.2" fill="none" stroke="none" visibility="hidden"></rect></g></svg></g></svg>